<svg xmlns:inkscape="http://www.inkscape.org/namespaces/inkscape" xmlns:sodipodi="http://sodipodi.sourceforge.net/DTD/sodipodi-0.dtd" xmlns="http://www.w3.org/2000/svg" xmlns:svg="http://www.w3.org/2000/svg" xmlns:rdf="http://www.w3.org/1999/02/22-rdf-syntax-ns#" xmlns:cc="http://creativecommons.org/ns#" xmlns:dc="http://purl.org/dc/elements/1.1/" version="1.1" viewBox="0 0 12.7 15.875" xml:space="preserve" x="0px" y="0px"><g><path style="" d="m 5.8412395,1.3576048 -3.533049,2.078264 a 0.92520372,0.92520372 0 0 0 -0.456107,0.797465 v 4.233333 a 0.92520278,0.92520278 0 0 0 0.456106,0.797464 l 3.53305,2.0782652 a 1.003434,1.003434 0 0 0 1.017522,-1e-6 L 10.391811,9.2641308 a 0.92520288,0.92520288 0 0 0 0.456106,-0.797464 V 4.2333338 A 0.92520382,0.92520382 0 0 0 10.39181,3.4358688 L 6.8587615,1.3576048 a 1.0034339,1.0034339 0 0 0 -1.017522,0 z" fill="#000000" stroke="none"/></g><text x="0" y="27.7" fill="#000000" font-size="5px" font-weight="bold" font-family="'Helvetica Neue', Helvetica, Arial-Unicode, Arial, Sans-serif"></text><text x="0" y="32.7" fill="#000000" font-size="5px" font-weight="bold" font-family="'Helvetica Neue', Helvetica, Arial-Unicode, Arial, Sans-serif"></text></svg>